<svg width="427.45998535156247px" height="129.44000549316405px" xmlns="http://www.w3.org/2000/svg" viewBox="36.27000732421877 10.279997253417974 427.45998535156247 129.44000549316405" style="background: rgba(0, 0, 0, 0);" preserveAspectRatio="xMidYMid"><defs><filter id="editing-extrusion" x="-100%" y="-100%" width="300%" height="300%"><feFlood result="color1" flood-color="#ffffff"></feFlood><feConvolveMatrix order="8,8" divisor="1" kernelMatrix="1 0 0 0 0 0 0 0 0 1 0 0 0 0 0 0 0 0 1 0 0 0 0 0 0 0 0 1 0 0 0 0 0 0 0 0 1 0 0 0 0 0 0 0 0 1 0 0 0 0 0 0 0 0 1 0 0 0 0 0 0 0 0 1" in="SourceAlpha" result="extrude"></feConvolveMatrix><feComposite in="color1" in2="extrude" result="comp-extrude" operator="in"></feComposite><feOffset dx="4" dy="4" in="comp-extrude" result="offset-extrude"></feOffset><feMerge><feMergeNode in="offset-extrude"></feMergeNode><feMergeNode in="SourceGraphic"></feMergeNode></feMerge></filter></defs><g filter="url(#editing-extrusion)"><g transform="translate(100.59501528739929, 98.65500068664551)"><path d="M27.41-43.53L27.41-42.38L21.88-42.56L21.88-42.56Q21.81-42.09 21.75-40.80L21.75-40.80L21.75-40.80Q21.69-39.50 21.59-36.97L21.59-36.97L21.59-36.97Q21.50-34.44 21.41-30.52L21.41-30.52L21.41-30.52Q21.31-26.59 21.19-20.88L21.19-20.88L38.09-21.13L38.22-42.94L31.44-43.19L31.44-44.34L57.53-43.53L57.53-42.38L50.81-42.56L50.81-42.56Q50.78-42.19 50.72-41.19L50.72-41.19L50.72-41.19Q50.66-40.19 50.58-38.23L50.58-38.23L50.58-38.23Q50.50-36.28 50.41-33.22L50.41-33.22L50.41-33.22Q50.31-30.16 50.20-25.66L50.20-25.66L50.20-25.66Q50.09-21.16 49.97-15.06L49.97-15.06L49.97-15.06Q49.84-8.97 49.72-0.97L49.72-0.97L57.41-0.97L57.41 0.19L31.94 0.19L31.94-0.97L38.03-0.97L38.09-19.97L21.13-19.72L21.13-19.72Q21.06-17.75 21.03-15.66L21.03-15.66L21.03-15.66Q21-13.56 20.97-11.27L20.97-11.27L20.97-11.27Q20.94-8.97 20.89-6.42L20.89-6.42L20.89-6.42Q20.84-3.88 20.81-0.97L20.81-0.97L27.25-0.97L27.25 0.19L1.72 0.19L1.72-0.97L9.09-0.97L9.28-42.94L1.28-43.19L1.28-44.34L27.41-43.53ZM84.75 1.22L84.88 1.22L84.88 1.22Q85.56 1.16 86.19 0.53L86.19 0.53L86.19 0.53Q86.72 0 87.28-1.17L87.28-1.17L87.28-1.17Q87.84-2.34 88.22-4.53L88.22-4.53L89.38-4.41L89.38-4.41Q88.94-1.81 88.20-0.44L88.20-0.44L88.20-0.44Q87.47 0.94 86.72 1.56L86.72 1.56L86.72 1.56Q85.84 2.31 84.88 2.38L84.88 2.38L84.88 2.38Q84.13 2.38 82.95 2.16L82.95 2.16L82.95 2.16Q81.78 1.94 80.63 1.39L80.63 1.39L80.63 1.39Q79.47 0.84 78.50-0.06L78.50-0.06L78.50-0.06Q77.53-0.97 77.16-2.38L77.16-2.38L77.16-2.38Q75.88-0.22 73.72 1.14L73.72 1.14L73.72 1.14Q71.56 2.50 68.81 2.50L68.81 2.50L68.81 2.50Q67.44 2.50 66.03 2.19L66.03 2.19L66.03 2.19Q64.63 1.88 63.45 1.16L63.45 1.16L63.45 1.16Q62.28 0.44 61.55-0.73L61.55-0.73L61.55-0.73Q60.81-1.91 60.81-3.66L60.81-3.66L60.81-3.66Q60.81-5.84 61.67-7.45L61.67-7.45L61.67-7.45Q62.53-9.06 63.97-10.14L63.97-10.14L63.97-10.14Q65.41-11.22 67.25-11.75L67.25-11.75L67.25-11.75Q69.09-12.28 71.06-12.28L71.06-12.28L71.06-12.28Q72.41-12.28 73.67-11.97L73.67-11.97L73.67-11.97Q74.94-11.66 76.25-10.88L76.25-10.88L76.25-10.88Q76.31-12.47 76.52-14.06L76.52-14.06L76.52-14.06Q76.72-15.66 76.88-17.03L76.88-17.03L76.88-17.03Q76.97-17.84 77.02-18.34L77.02-18.34L77.02-18.34Q77.06-18.84 77.09-19.16L77.09-19.16L77.09-19.16Q77.13-19.47 77.14-19.63L77.14-19.63L77.14-19.63Q77.16-19.78 77.16-19.91L77.16-19.91L77.16-19.91Q77.16-22.75 76.13-24.44L76.13-24.44L76.13-24.44Q75.09-26.13 73.38-26.13L73.38-26.13L73.38-26.13Q72.56-26.06 71.72-25.84L71.72-25.84L71.72-25.84Q70.88-25.63 70.19-25.23L70.19-25.23L70.19-25.23Q69.50-24.84 69.06-24.27L69.06-24.27L69.06-24.27Q68.63-23.69 68.63-22.91L68.63-22.91L68.63-22.91Q68.63-22.06 69.16-21.58L69.16-21.58L69.16-21.58Q69.69-21.09 70.33-20.61L70.33-20.61L70.33-20.61Q70.97-20.13 71.50-19.50L71.50-19.50L71.50-19.50Q72.03-18.88 72.03-17.78L72.03-17.78L72.03-17.78Q72.03-16.63 71.67-15.86L71.67-15.86L71.67-15.86Q71.31-15.09 70.72-14.63L70.72-14.63L70.72-14.63Q70.13-14.16 69.38-13.95L69.38-13.95L69.38-13.95Q68.63-13.75 67.88-13.75L67.88-13.75L67.88-13.75Q67.09-13.75 66.33-14.02L66.33-14.02L66.33-14.02Q65.56-14.28 64.95-14.84L64.95-14.84L64.95-14.84Q64.34-15.41 63.95-16.31L63.95-16.31L63.95-16.31Q63.56-17.22 63.56-18.50L63.56-18.50L63.56-18.50Q63.56-20.22 64.41-21.78L64.41-21.78L64.41-21.78Q65.25-23.34 66.63-24.53L66.63-24.53L66.63-24.53Q68-25.72 69.75-26.45L69.75-26.45L69.75-26.45Q71.50-27.19 73.31-27.25L73.31-27.25L73.31-27.25Q75-27.25 76.98-26.56L76.98-26.56L76.98-26.56Q78.97-25.88 80.70-24.22L80.70-24.22L80.70-24.22Q82.44-22.56 83.59-19.78L83.59-19.78L83.59-19.78Q84.75-17 84.75-12.81L84.75-12.81L84.75-12.81Q84.75-10.84 84.61-9.06L84.61-9.06L84.61-9.06Q84.47-7.28 84.31-5.77L84.31-5.77L84.31-5.77Q84.16-4.25 84.02-3L84.02-3L84.02-3Q83.88-1.75 83.88-0.84L83.88-0.84L83.88-0.84Q83.88 0.06 84.05 0.59L84.05 0.59L84.05 0.59Q84.22 1.13 84.75 1.22L84.75 1.22ZM76.63-4.03L76.63-4.03L76.63-4.03Q76.44-5.09 76.34-6.27L76.34-6.27L76.34-6.27Q76.25-7.44 76.25-8.63L76.25-8.63L76.25-9.47L76.25-9.47Q75.38-10.19 74.36-10.53L74.36-10.53L74.36-10.53Q73.34-10.88 72.53-10.88L72.53-10.88L72.53-10.88Q70.56-10.88 69.53-9.25L69.53-9.25L69.53-9.25Q68.50-7.63 68.50-4.94L68.50-4.94L68.50-4.94Q68.50-3.81 68.73-2.84L68.73-2.84L68.73-2.84Q68.97-1.88 69.39-1.17L69.39-1.17L69.39-1.17Q69.81-0.47 70.42-0.08L70.42-0.08L70.42-0.08Q71.03 0.31 71.78 0.31L71.78 0.31L71.78 0.31Q72.53 0.31 73.23-0.06L73.23-0.06L73.23-0.06Q73.94-0.44 74.56-1.05L74.56-1.05L74.56-1.05Q75.19-1.66 75.72-2.44L75.72-2.44L75.72-2.44Q76.25-3.22 76.63-4.03ZM102.38 1.16L102.38 1.16L102.38 1.16Q100.47 1.16 98.69 0.67L98.69 0.67L98.69 0.67Q96.91 0.19 95.45-0.70L95.45-0.70L95.45-0.70Q94-1.59 92.98-2.83L92.98-2.83L92.98-2.83Q91.97-4.06 91.63-5.56L91.63-5.56L91.63-5.56Q91.63-6.44 91.89-7.19L91.89-7.19L91.89-7.19Q92.16-7.94 92.64-8.50L92.64-8.50L92.64-8.50Q93.13-9.06 93.78-9.39L93.78-9.39L93.78-9.39Q94.44-9.72 95.19-9.72L95.19-9.72L95.19-9.72Q96.09-9.72 96.97-9.19L96.97-9.19L96.97-9.19Q97.84-8.66 98.47-7.56L98.47-7.56L98.47-7.56Q98.97-6.66 99.20-5.75L99.20-5.75L99.20-5.75Q99.44-4.84 99.58-4L99.58-4L99.58-4Q99.72-3.16 99.83-2.42L99.83-2.42L99.83-2.42Q99.94-1.69 100.20-1.16L100.20-1.16L100.20-1.16Q100.47-0.63 100.97-0.31L100.97-0.31L100.97-0.31Q101.47 0 102.38 0L102.38 0L102.38 0Q103.84 0 104.91-0.28L104.91-0.28L104.91-0.28Q105.97-0.56 106.66-1.06L106.66-1.06L106.66-1.06Q107.34-1.56 107.67-2.19L107.67-2.19L107.67-2.19Q108-2.81 108-3.53L108-3.53L108-3.53Q108-4.34 107.56-5.19L107.56-5.19L107.56-5.19Q107.13-6.03 106.28-6.77L106.28-6.77L106.28-6.77Q105.44-7.50 104.17-8.09L104.17-8.09L104.17-8.09Q102.91-8.69 101.22-8.97L101.22-8.97L101.22-8.97Q99.31-9.28 97.70-9.91L97.70-9.91L97.70-9.91Q96.09-10.53 94.91-11.58L94.91-11.58L94.91-11.58Q93.72-12.63 93.05-14.14L93.05-14.14L93.05-14.14Q92.38-15.66 92.38-17.78L92.38-17.78L92.38-17.78Q92.38-19.91 93.33-21.55L93.33-21.55L93.33-21.55Q94.28-23.19 95.78-24.31L95.78-24.31L95.78-24.31Q97.28-25.44 99.16-26.03L99.16-26.03L99.16-26.03Q101.03-26.63 102.88-26.63L102.88-26.63L102.88-26.63Q103.66-26.63 104.69-26.52L104.69-26.52L104.69-26.52Q105.72-26.41 106.80-26.13L106.80-26.13L106.80-26.13Q107.88-25.84 108.94-25.38L108.94-25.38L108.94-25.38Q110-24.91 110.83-24.19L110.83-24.19L110.83-24.19Q111.66-23.47 112.16-22.47L112.16-22.47L112.16-22.47Q112.66-21.47 112.66-20.16L112.66-20.16L112.66-20.16Q112.66-19.41 112.39-18.75L112.39-18.75L112.39-18.75Q112.13-18.09 111.67-17.61L111.67-17.61L111.67-17.61Q111.22-17.13 110.61-16.84L110.61-16.84L110.61-16.84Q110-16.56 109.34-16.56L109.34-16.56L109.34-16.56Q107.84-16.56 107.08-17.22L107.08-17.22L107.08-17.22Q106.31-17.88 105.97-18.88L105.97-18.88L105.97-18.88Q105.63-19.88 105.52-21.02L105.52-21.02L105.52-21.02Q105.41-22.16 105.19-23.16L105.19-23.16L105.19-23.16Q104.97-24.16 104.48-24.81L104.48-24.81L104.48-24.81Q104-25.47 102.88-25.47L102.88-25.47L102.88-25.47Q100.75-25.31 99.55-24.45L99.55-24.45L99.55-24.45Q98.34-23.59 98.34-22.16L98.34-22.16L98.34-22.16Q98.34-21.22 98.75-20.33L98.75-20.33L98.75-20.33Q99.16-19.44 99.92-18.69L99.92-18.69L99.92-18.69Q100.69-17.94 101.78-17.39L101.78-17.39L101.78-17.39Q102.88-16.84 104.22-16.63L104.22-16.63L104.22-16.63Q106.06-16.31 107.75-15.63L107.75-15.63L107.75-15.63Q109.44-14.94 110.73-13.88L110.73-13.88L110.73-13.88Q112.03-12.81 112.80-11.39L112.80-11.39L112.80-11.39Q113.56-9.97 113.56-8.25L113.56-8.25L113.56-8.25Q113.56-6.53 112.67-4.84L112.67-4.84L112.67-4.84Q111.78-3.16 110.25-1.83L110.25-1.83L110.25-1.83Q108.72-0.50 106.69 0.33L106.69 0.33L106.69 0.33Q104.66 1.16 102.38 1.16ZM115.69-42.56L115.69-43.72L131.38-44.16L131.03-19.06L131.03-19.06Q131.50-20.28 132.22-21.59L132.22-21.59L132.22-21.59Q132.94-22.91 133.89-24.03L133.89-24.03L133.89-24.03Q134.84-25.16 136.06-25.94L136.06-25.94L136.06-25.94Q137.28-26.72 138.78-26.88L138.78-26.88L138.78-26.88Q140.56-26.88 142.13-26.23L142.13-26.23L142.13-26.23Q143.69-25.59 144.98-24.48L144.98-24.48L144.98-24.48Q146.28-23.38 147.30-21.88L147.30-21.88L147.30-21.88Q148.31-20.38 149-18.69L149-18.69L149-18.69Q149.69-17 150-15.23L150-15.23L150-15.23Q150.31-13.47 150.25-11.78L150.25-11.78L150.25-11.78Q150.22-10.03 150.16-8.19L150.16-8.19L150.16-8.19Q150.09-6.59 150.02-4.67L150.02-4.67L150.02-4.67Q149.94-2.75 149.81-0.91L149.81-0.91L154.22-0.84L154.22 0.31L136.88-0.06L136.88-1.22L140.25-1.16L140.25-1.16Q140.66-5.34 140.75-9.55L140.75-9.55L140.75-9.55Q140.84-13.75 140.66-18.06L140.66-18.06L140.66-18.06Q140.69-20.03 140.61-21.44L140.61-21.44L140.61-21.44Q140.53-22.84 140.23-23.77L140.23-23.77L140.23-23.77Q139.94-24.69 139.42-25.13L139.42-25.13L139.42-25.13Q138.91-25.56 138.09-25.59L138.09-25.59L138.09-25.59Q137.56-25.44 136.67-24.97L136.67-24.97L136.67-24.97Q135.78-24.50 134.78-23.34L134.78-23.34L134.78-23.34Q133.78-22.19 132.77-20.22L132.77-20.22L132.77-20.22Q131.75-18.25 130.97-15.16L130.97-15.16L130.78-1.22L134.06-1.22L134.06-0.06L117.81-0.06L117.81-1.22L120.63-1.22L121.25-42.69L115.69-42.56ZM179.22-0.19L179.56-0.19L179.56-0.19Q180.47-0.19 181.72-0.22L181.72-0.22L181.72-0.22Q182.97-0.25 184.41-0.56L184.41-0.56L184.41-0.56Q185.84-0.88 187.41-1.56L187.41-1.56L187.41-1.56Q188.97-2.25 190.52-3.55L190.52-3.55L190.52-3.55Q192.06-4.84 193.53-6.88L193.53-6.88L193.53-6.88Q195-8.91 196.25-11.91L196.25-11.91L197.28-11.53L197.28-11.53Q196-8.47 194.52-6.36L194.52-6.36L194.52-6.36Q193.03-4.25 191.45-2.86L191.45-2.86L191.45-2.86Q189.88-1.47 188.28-0.69L188.28-0.69L188.28-0.69Q186.69 0.09 185.19 0.45L185.19 0.45L185.19 0.45Q183.69 0.81 182.36 0.89L182.36 0.89L182.36 0.89Q181.03 0.97 180 0.97L180 0.97L180 0.97Q179.06 0.97 177.61 0.89L177.61 0.89L177.61 0.89Q176.16 0.81 174.41 0.50L174.41 0.50L174.41 0.50Q172.66 0.19 170.73-0.44L170.73-0.44L170.73-0.44Q168.81-1.06 166.94-2.14L166.94-2.14L166.94-2.14Q165.06-3.22 163.38-4.83L163.38-4.83L163.38-4.83Q161.69-6.44 160.41-8.73L160.41-8.73L160.41-8.73Q159.13-11.03 158.36-14.09L158.36-14.09L158.36-14.09Q157.59-17.16 157.59-21.13L157.59-21.13L157.59-21.13Q157.59-26.16 158.75-29.86L158.75-29.86L158.75-29.86Q159.91-33.56 161.83-36.17L161.83-36.17L161.83-36.17Q163.75-38.78 166.22-40.45L166.22-40.45L166.22-40.45Q168.69-42.13 171.28-43.08L171.28-43.08L171.28-43.08Q173.88-44.03 176.41-44.41L176.41-44.41L176.41-44.41Q178.94-44.78 180.97-44.81L180.97-44.81L181.41-44.81L181.41-44.81Q185.28-44.81 188.45-43.77L188.45-43.77L188.45-43.77Q191.63-42.72 193.89-40.97L193.89-40.97L193.89-40.97Q196.16-39.22 197.39-36.97L197.39-36.97L197.39-36.97Q198.63-34.72 198.63-32.31L198.63-32.31L198.63-32.31Q198.63-31.16 198.19-30.17L198.19-30.17L198.19-30.17Q197.75-29.19 197.05-28.47L197.05-28.47L197.05-28.47Q196.34-27.75 195.41-27.34L195.41-27.34L195.41-27.34Q194.47-26.94 193.50-26.94L193.50-26.94L193.50-26.94Q192.50-26.97 191.48-27.44L191.48-27.44L191.48-27.44Q190.47-27.91 189.63-28.75L189.63-28.75L189.63-28.75Q188.78-29.59 188.17-30.81L188.17-30.81L188.17-30.81Q187.56-32.03 187.38-33.53L187.38-33.53L187.16-35L187.16-35Q186.97-36.41 186.66-37.92L186.66-37.92L186.66-37.92Q186.34-39.44 185.70-40.72L185.70-40.72L185.70-40.72Q185.06-42 184.03-42.83L184.03-42.83L184.03-42.83Q183-43.66 181.41-43.66L181.41-43.66L181.03-43.66L181.03-43.66Q179.72-43.56 178.34-43.02L178.34-43.02L178.34-43.02Q176.97-42.47 175.67-41.33L175.67-41.33L175.67-41.33Q174.38-40.19 173.20-38.42L173.20-38.42L173.20-38.42Q172.03-36.66 171.16-34.17L171.16-34.17L171.16-34.17Q170.28-31.69 169.77-28.39L169.77-28.39L169.77-28.39Q169.25-25.09 169.25-20.94L169.25-20.94L169.25-20.94Q169.25-16.75 169.70-13.61L169.70-13.61L169.70-13.61Q170.16-10.47 170.92-8.17L170.92-8.17L170.92-8.17Q171.69-5.88 172.70-4.36L172.70-4.36L172.70-4.36Q173.72-2.84 174.83-1.94L174.83-1.94L174.83-1.94Q175.94-1.03 177.06-0.63L177.06-0.63L177.06-0.63Q178.19-0.22 179.22-0.19L179.22-0.19ZM231.50-11.47L231.50-11.47L231.50-11.47Q231.50-9.31 230.77-7.45L230.77-7.45L230.77-7.45Q230.03-5.59 228.80-4.05L228.80-4.05L228.80-4.05Q227.56-2.50 225.98-1.30L225.98-1.30L225.98-1.30Q224.41-0.09 222.70 0.73L222.70 0.73L222.70 0.73Q221 1.56 219.31 2L219.31 2L219.31 2Q217.63 2.44 216.19 2.44L216.19 2.44L215.88 2.44L215.88 2.44Q214.44 2.41 212.83 1.97L212.83 1.97L212.83 1.97Q211.22 1.53 209.64 0.70L209.64 0.70L209.64 0.70Q208.06-0.13 206.64-1.34L206.64-1.34L206.64-1.34Q205.22-2.56 204.13-4.20L204.13-4.20L204.13-4.20Q203.03-5.84 202.38-7.89L202.38-7.89L202.38-7.89Q201.72-9.94 201.72-12.41L201.72-12.41L201.72-12.41Q201.72-14.94 202.50-17.05L202.50-17.05L202.50-17.05Q203.28-19.16 204.55-20.81L204.55-20.81L204.55-20.81Q205.81-22.47 207.42-23.69L207.42-23.69L207.42-23.69Q209.03-24.91 210.67-25.72L210.67-25.72L210.67-25.72Q212.31-26.53 213.83-26.92L213.83-26.92L213.83-26.92Q215.34-27.31 216.47-27.31L216.47-27.31L216.72-27.31L216.72-27.31Q218.63-27.25 220.47-26.64L220.47-26.64L220.47-26.64Q222.31-26.03 223.95-24.97L223.95-24.97L223.95-24.97Q225.59-23.91 226.98-22.45L226.98-22.45L226.98-22.45Q228.38-21 229.38-19.25L229.38-19.25L229.38-19.25Q230.38-17.50 230.94-15.53L230.94-15.53L230.94-15.53Q231.50-13.56 231.50-11.47ZM221.50-11.97L221.50-11.97L221.50-11.97Q221.50-12.75 221.50-14.13L221.50-14.13L221.50-14.13Q221.50-15.50 221.39-17.08L221.39-17.08L221.39-17.08Q221.28-18.66 221-20.28L221-20.28L221-20.28Q220.72-21.91 220.16-23.22L220.16-23.22L220.16-23.22Q219.59-24.53 218.70-25.36L218.70-25.36L218.70-25.36Q217.81-26.19 216.47-26.19L216.47-26.19L216.47-26.19Q213.91-26.19 212.42-22.69L212.42-22.69L212.42-22.69Q210.94-19.19 210.94-12.09L210.94-12.09L210.94-12.09Q210.94-8.56 211.23-6.03L211.23-6.03L211.23-6.03Q211.53-3.50 212.16-1.88L212.16-1.88L212.16-1.88Q212.78-0.25 213.78 0.52L213.78 0.52L213.78 0.52Q214.78 1.28 216.19 1.28L216.19 1.28L216.47 1.28L216.47 1.28Q217.81 1.22 218.70 0.44L218.70 0.44L218.70 0.44Q219.59-0.34 220.17-1.95L220.17-1.95L220.17-1.95Q220.75-3.56 221.05-6.03L221.05-6.03L221.05-6.03Q221.34-8.50 221.50-11.97ZM254.97 0.63L255.03-2.25L255.03-2.25Q254.91-1.63 254.42-1.08L254.42-1.08L254.42-1.08Q253.94-0.53 253.25-0.05L253.25-0.05L253.25-0.05Q252.56 0.44 251.77 0.81L251.77 0.81L251.77 0.81Q250.97 1.19 250.23 1.44L250.23 1.44L250.23 1.44Q249.50 1.69 248.95 1.80L248.95 1.80L248.95 1.80Q248.41 1.91 248.19 1.84L248.19 1.84L248.19 1.84Q245.75 1.84 243.86 1.22L243.86 1.22L243.86 1.22Q241.97 0.59 240.55-0.45L240.55-0.45L240.55-0.45Q239.13-1.50 238.16-2.89L238.16-2.89L238.16-2.89Q237.19-4.28 236.59-5.83L236.59-5.83L236.59-5.83Q236-7.38 235.73-9L235.73-9L235.73-9Q235.47-10.63 235.47-12.09L235.47-12.09L235.47-12.09Q235.47-13.13 235.75-14.63L235.75-14.63L235.75-14.63Q236.03-16.13 236.64-17.75L236.64-17.75L236.64-17.75Q237.25-19.38 238.22-20.98L238.22-20.98L238.22-20.98Q239.19-22.59 240.56-23.88L240.56-23.88L240.56-23.88Q241.94-25.16 243.75-25.95L243.75-25.95L243.75-25.95Q245.56-26.75 247.88-26.75L247.88-26.75L247.88-26.75Q249-26.75 250.08-26.39L250.08-26.39L250.08-26.39Q251.16-26.03 252.13-25.42L252.13-25.42L252.13-25.42Q253.09-24.81 253.94-23.98L253.94-23.98L253.94-23.98Q254.78-23.16 255.44-22.22L255.44-22.22L255.81-41.03L249.03-41.03L249.03-41.91L265.03-41.91L264.25-0.50L270.59-0.50L270.59 0.63L254.97 0.63ZM250.19 0.06L250.19 0.06L250.19 0.06Q250.91 0.06 251.67-0.34L251.67-0.34L251.67-0.34Q252.44-0.75 253.13-1.53L253.13-1.53L253.13-1.53Q253.81-2.31 254.33-3.48L254.33-3.48L254.33-3.48Q254.84-4.66 255.09-6.16L255.09-6.16L255.44-19.84L255.44-19.84Q254.94-21.03 254.30-21.91L254.30-21.91L254.30-21.91Q253.66-22.78 252.97-23.41L252.97-23.41L252.97-23.41Q252.28-24.03 251.58-24.44L251.58-24.44L251.58-24.44Q250.88-24.84 250.25-25.09L250.25-25.09L250.25-25.09Q249.53-25.09 248.66-24.52L248.66-24.52L248.66-24.52Q247.78-23.94 247.03-22.38L247.03-22.38L247.03-22.38Q246.28-20.81 245.77-18.06L245.77-18.06L245.77-18.06Q245.25-15.31 245.25-10.94L245.25-10.94L245.25-10.94Q245.25-7.78 245.67-5.66L245.67-5.66L245.67-5.66Q246.09-3.53 246.80-2.27L246.80-2.27L246.80-2.27Q247.50-1 248.39-0.47L248.39-0.47L248.39-0.47Q249.28 0.06 250.19 0.06ZM297.53-15.69L297.53-15.69L297.53-15.69Q297.53-14.03 296.47-12.70L296.47-12.70L296.47-12.70Q295.41-11.38 293.73-10.44L293.73-10.44L293.73-10.44Q292.06-9.50 290.02-8.95L290.02-8.95L290.02-8.95Q287.97-8.41 286-8.38L286-8.38L286-8.38Q285.88-8.38 285.44-8.41L285.44-8.41L285.44-8.41Q285-8.44 284.38-8.61L284.38-8.61L284.38-8.61Q283.75-8.78 282.97-9.16L282.97-9.16L282.97-9.16Q282.19-9.53 281.41-10.25L281.41-10.25L281.41-10.25Q281.50-7.47 281.92-5.48L281.92-5.48L281.92-5.48Q282.34-3.50 283.05-2.23L283.05-2.23L283.05-2.23Q283.75-0.97 284.70-0.39L284.70-0.39L284.70-0.39Q285.66 0.19 286.78 0.19L286.78 0.19L286.78 0.19Q287.44 0.19 288.55-0.25L288.55-0.25L288.55-0.25Q289.66-0.69 290.86-1.59L290.86-1.59L290.86-1.59Q292.06-2.50 293.22-3.91L293.22-3.91L293.22-3.91Q294.38-5.31 295.16-7.28L295.16-7.28L296.06-9.59L297.19-9.22L296.69-7.81L296.69-7.81Q296-5.97 294.88-4.31L294.88-4.31L294.88-4.31Q293.75-2.66 292.27-1.36L292.27-1.36L292.27-1.36Q290.78-0.06 288.97 0.73L288.97 0.73L288.97 0.73Q287.16 1.53 285.09 1.66L285.09 1.66L285.09 1.66Q281.50 1.53 279 0.38L279 0.38L279 0.38Q276.50-0.78 274.94-2.56L274.94-2.56L274.94-2.56Q273.38-4.34 272.67-6.53L272.67-6.53L272.67-6.53Q271.97-8.72 271.97-10.94L271.97-10.94L271.97-10.94Q271.97-12.41 272.42-14.14L272.42-14.14L272.42-14.14Q272.88-15.88 273.75-17.64L273.75-17.64L273.75-17.64Q274.63-19.41 275.89-21.06L275.89-21.06L275.89-21.06Q277.16-22.72 278.77-24L278.77-24L278.77-24Q280.38-25.28 282.30-26.05L282.30-26.05L282.30-26.05Q284.22-26.81 286.44-26.81L286.44-26.81L286.44-26.81Q288.47-26.75 290.08-26.20L290.08-26.20L290.08-26.20Q291.69-25.66 292.92-24.77L292.92-24.77L292.92-24.77Q294.16-23.88 295.03-22.75L295.03-22.75L295.03-22.75Q295.91-21.63 296.47-20.42L296.47-20.42L296.47-20.42Q297.03-19.22 297.28-17.98L297.28-17.98L297.28-17.98Q297.53-16.75 297.53-15.69ZM285.94-25.66L285.94-25.66L285.94-25.66Q284.94-25.59 284.08-24.53L284.08-24.53L284.08-24.53Q283.22-23.47 282.61-21.64L282.61-21.64L282.61-21.64Q282-19.81 281.66-17.34L281.66-17.34L281.66-17.34Q281.31-14.88 281.31-12.03L281.31-12.03L281.31-12.03Q282.09-11.13 282.88-10.63L282.88-10.63L282.88-10.63Q283.66-10.13 284.31-9.89L284.31-9.89L284.31-9.89Q284.97-9.66 285.41-9.59L285.41-9.59L285.41-9.59Q285.84-9.53 285.94-9.53L285.94-9.53L285.94-9.53Q287.16-9.56 287.95-10.06L287.95-10.06L287.95-10.06Q288.75-10.56 289.20-11.44L289.20-11.44L289.20-11.44Q289.66-12.31 289.84-13.53L289.84-13.53L289.84-13.53Q290.03-14.75 290.03-16.25L290.03-16.25L290.03-16.25Q290.03-18.13 289.80-19.83L289.80-19.83L289.80-19.83Q289.56-21.53 289.08-22.83L289.08-22.83L289.08-22.83Q288.59-24.13 287.81-24.89L287.81-24.89L287.81-24.89Q287.03-25.66 285.94-25.66Z" fill="#000000"></path></g></g><style>text {
  font-size: 64px;
  font-family: Arial Black;
  dominant-baseline: central;
  text-anchor: middle;
}</style></svg>